%TF.GenerationSoftware,KiCad,Pcbnew,7.0.9*%
%TF.CreationDate,2023-12-19T13:09:28-08:00*%
%TF.ProjectId,Numpad-Plate,4e756d70-6164-42d5-906c-6174652e6b69,rev?*%
%TF.SameCoordinates,Original*%
%TF.FileFunction,Soldermask,Top*%
%TF.FilePolarity,Negative*%
%FSLAX46Y46*%
G04 Gerber Fmt 4.6, Leading zero omitted, Abs format (unit mm)*
G04 Created by KiCad (PCBNEW 7.0.9) date 2023-12-19 13:09:28*
%MOMM*%
%LPD*%
G01*
G04 APERTURE LIST*
%ADD10C,0.200000*%
G04 APERTURE END LIST*
D10*
X123099500Y-137704902D02*
X123099500Y-140934902D01*
X155424500Y-64134902D02*
X154624500Y-64134902D01*
X124824500Y-137704902D02*
X123099500Y-137704902D01*
X140624500Y-60034902D02*
X154624500Y-60034902D01*
X128124500Y-137704902D02*
X128124500Y-136784902D01*
X139824500Y-64134902D02*
X139824500Y-61034902D01*
X129849500Y-137704902D02*
X128124500Y-137704902D01*
X145899500Y-140334902D02*
X145099500Y-140334902D01*
X120774500Y-83184902D02*
X120774500Y-80084902D01*
X174474500Y-149234902D02*
X173674500Y-149234902D01*
X135574500Y-74034902D02*
X121574500Y-74034902D01*
X174474500Y-146134902D02*
X174474500Y-149234902D01*
X135574500Y-73034902D02*
X135574500Y-74034902D01*
X192724500Y-73034902D02*
X192724500Y-74034902D01*
X106999500Y-146134902D02*
X107799500Y-146134902D01*
X193524500Y-73034902D02*
X192724500Y-73034902D01*
X92199500Y-146134902D02*
X92999500Y-146134902D01*
X192724500Y-64134902D02*
X192724500Y-69934902D01*
X106999500Y-140334902D02*
X106999500Y-146134902D01*
X193524500Y-64134902D02*
X192724500Y-64134902D01*
X92999500Y-146134902D02*
X92999500Y-140334902D01*
X155424500Y-108034902D02*
X155424500Y-111134902D01*
X87949500Y-127084902D02*
X88749500Y-127084902D01*
X139824500Y-111134902D02*
X139824500Y-108034902D01*
X73149500Y-127084902D02*
X73949500Y-127084902D01*
X140624500Y-108034902D02*
X140624500Y-102234902D01*
X87949500Y-121284902D02*
X87949500Y-127084902D01*
X139824500Y-130184902D02*
X139824500Y-127084902D01*
X92199500Y-127084902D02*
X92999500Y-127084902D01*
X155424500Y-127084902D02*
X155424500Y-130184902D01*
X106999500Y-127084902D02*
X107799500Y-127084902D01*
X174474500Y-108034902D02*
X174474500Y-111134902D01*
X68899500Y-150234902D02*
X54899500Y-150234902D01*
X159674500Y-98134902D02*
X173674500Y-98134902D01*
X54899500Y-150234902D02*
X54899500Y-149234902D01*
X47612500Y-152386500D02*
X47612500Y-133337500D01*
X54899500Y-32335800D02*
X54899500Y-31335800D01*
X73949500Y-44335800D02*
X73149500Y-44335800D01*
X87949500Y-44335800D02*
X87949500Y-45335800D01*
X88749500Y-35435800D02*
X87949500Y-35435800D01*
X107799500Y-41235800D02*
X107799500Y-44335800D01*
X107799500Y-35435800D02*
X106999500Y-35435800D01*
X121574500Y-31335800D02*
X135574500Y-31335800D01*
X136374500Y-127084902D02*
X136374500Y-130184902D01*
X54899500Y-131184902D02*
X54899500Y-130184902D01*
X136374500Y-32335800D02*
X136374500Y-35435800D01*
X121574500Y-117184902D02*
X135574500Y-117184902D01*
X54899500Y-130184902D02*
X54099500Y-130184902D01*
X136374500Y-35435800D02*
X135574500Y-35435800D01*
X136374500Y-121284902D02*
X135574500Y-121284902D01*
X54099500Y-130184902D02*
X54099500Y-127084902D01*
X52375500Y-23799486D02*
G75*
G03*
X47612500Y-28562500I23J-4763023D01*
G01*
X135574500Y-35435800D02*
X135574500Y-41235800D01*
X121574500Y-130184902D02*
X120774500Y-130184902D01*
X54099500Y-127084902D02*
X54899500Y-127084902D01*
X135574500Y-41235800D02*
X136374500Y-41235800D01*
X120774500Y-127084902D02*
X121574500Y-127084902D01*
X54899500Y-127084902D02*
X54899500Y-121284902D01*
X136374500Y-41235800D02*
X136374500Y-44335800D01*
X121574500Y-131184902D02*
X121574500Y-130184902D01*
X54899500Y-121284902D02*
X54099500Y-121284902D01*
X136374500Y-44335800D02*
X135574500Y-44335800D01*
X135574500Y-118184902D02*
X136374500Y-118184902D01*
X54099500Y-121284902D02*
X54099500Y-118184902D01*
X135574500Y-44335800D02*
X135574500Y-45335800D01*
X115636500Y-28934902D02*
G75*
G03*
X115636500Y-28934902I-1350000J0D01*
G01*
X135574500Y-127084902D02*
X136374500Y-127084902D01*
X54099500Y-118184902D02*
X54899500Y-118184902D01*
X135574500Y-45335800D02*
X121574500Y-45335800D01*
X121574500Y-121284902D02*
X120774500Y-121284902D01*
X54899500Y-118184902D02*
X54899500Y-117184902D01*
X121574500Y-45335800D02*
X121574500Y-44335800D01*
X135574500Y-130184902D02*
X135574500Y-131184902D01*
X121574500Y-44335800D02*
X120774500Y-44335800D01*
X121574500Y-118184902D02*
X121574500Y-117184902D01*
X120774500Y-44335800D02*
X120774500Y-41235800D01*
X136374500Y-130184902D02*
X135574500Y-130184902D01*
X73949500Y-117184902D02*
X87949500Y-117184902D01*
X120774500Y-41235800D02*
X121574500Y-41235800D01*
X135574500Y-117184902D02*
X135574500Y-118184902D01*
X88749500Y-127084902D02*
X88749500Y-130184902D01*
X121574500Y-41235800D02*
X121574500Y-35435800D01*
X120774500Y-118184902D02*
X121574500Y-118184902D01*
X121574500Y-35435800D02*
X120774500Y-35435800D01*
X155424500Y-99134902D02*
X155424500Y-102234902D01*
X120774500Y-35435800D02*
X120774500Y-32335800D01*
X154624500Y-112134902D02*
X140624500Y-112134902D01*
X73149500Y-121284902D02*
X73149500Y-118184902D01*
X120774500Y-32335800D02*
X121574500Y-32335800D01*
X154624500Y-102234902D02*
X154624500Y-108034902D01*
X87949500Y-131184902D02*
X73949500Y-131184902D01*
X121574500Y-32335800D02*
X121574500Y-31335800D01*
X140624500Y-31335800D02*
X154624500Y-31335800D01*
X139824500Y-102234902D02*
X139824500Y-99134902D01*
X73149500Y-130184902D02*
X73149500Y-127084902D01*
X155424500Y-41235800D02*
X155424500Y-44335800D01*
X140624500Y-98134902D02*
X154624500Y-98134902D01*
X88749500Y-130184902D02*
X87949500Y-130184902D01*
X139824500Y-35435800D02*
X139824500Y-32335800D01*
X155424500Y-102234902D02*
X154624500Y-102234902D01*
X87949500Y-118184902D02*
X88749500Y-118184902D01*
X154624500Y-45335800D02*
X140624500Y-45335800D01*
X140624500Y-111134902D02*
X139824500Y-111134902D01*
X73949500Y-121284902D02*
X73149500Y-121284902D01*
X140624500Y-41235800D02*
X140624500Y-35435800D01*
X139824500Y-108034902D02*
X140624500Y-108034902D01*
X73149500Y-118184902D02*
X73949500Y-118184902D01*
X154624500Y-35435800D02*
X154624500Y-41235800D01*
X140624500Y-112134902D02*
X140624500Y-111134902D01*
X73949500Y-130184902D02*
X73149500Y-130184902D01*
X155424500Y-32335800D02*
X155424500Y-35435800D01*
X154624500Y-99134902D02*
X155424500Y-99134902D01*
X87949500Y-130184902D02*
X87949500Y-131184902D01*
X139824500Y-44335800D02*
X139824500Y-41235800D01*
X154624500Y-108034902D02*
X155424500Y-108034902D01*
X73949500Y-118184902D02*
X73949500Y-117184902D01*
X139824500Y-41235800D02*
X140624500Y-41235800D01*
X140624500Y-102234902D02*
X139824500Y-102234902D01*
X73949500Y-131184902D02*
X73949500Y-130184902D01*
X154624500Y-41235800D02*
X155424500Y-41235800D01*
X154624500Y-111134902D02*
X154624500Y-112134902D01*
X87949500Y-117184902D02*
X87949500Y-118184902D01*
X155424500Y-44335800D02*
X154624500Y-44335800D01*
X140624500Y-99134902D02*
X140624500Y-98134902D01*
X88749500Y-121284902D02*
X87949500Y-121284902D01*
X154624500Y-32335800D02*
X155424500Y-32335800D01*
X155424500Y-111134902D02*
X154624500Y-111134902D01*
X92999500Y-117184902D02*
X106999500Y-117184902D01*
X140624500Y-35435800D02*
X139824500Y-35435800D01*
X154624500Y-98134902D02*
X154624500Y-99134902D01*
X107799500Y-127084902D02*
X107799500Y-130184902D01*
X139824500Y-32335800D02*
X140624500Y-32335800D01*
X139824500Y-99134902D02*
X140624500Y-99134902D01*
X140624500Y-44335800D02*
X139824500Y-44335800D01*
X155424500Y-118184902D02*
X155424500Y-121284902D01*
X154624500Y-44335800D02*
X154624500Y-45335800D01*
X154624500Y-131184902D02*
X140624500Y-131184902D01*
X92199500Y-121284902D02*
X92199500Y-118184902D01*
X140624500Y-32335800D02*
X140624500Y-31335800D01*
X154624500Y-121284902D02*
X154624500Y-127084902D01*
X106999500Y-131184902D02*
X92999500Y-131184902D01*
X140624500Y-45335800D02*
X140624500Y-44335800D01*
X154624500Y-31335800D02*
X154624500Y-32335800D01*
X140624500Y-127084902D02*
X140624500Y-121284902D01*
X106999500Y-121284902D02*
X106999500Y-127084902D01*
X155424500Y-35435800D02*
X154624500Y-35435800D01*
X159674500Y-31335800D02*
X173674500Y-31335800D01*
X139824500Y-121284902D02*
X139824500Y-118184902D01*
X92199500Y-130184902D02*
X92199500Y-127084902D01*
X174474500Y-41235800D02*
X174474500Y-44335800D01*
X140624500Y-117184902D02*
X154624500Y-117184902D01*
X107799500Y-130184902D02*
X106999500Y-130184902D01*
X158874500Y-35435800D02*
X158874500Y-32335800D01*
X155424500Y-121284902D02*
X154624500Y-121284902D01*
X106999500Y-118184902D02*
X107799500Y-118184902D01*
X173674500Y-45335800D02*
X159674500Y-45335800D01*
X140624500Y-130184902D02*
X139824500Y-130184902D01*
X92999500Y-121284902D02*
X92199500Y-121284902D01*
X159674500Y-41235800D02*
X159674500Y-35435800D01*
X139824500Y-127084902D02*
X140624500Y-127084902D01*
X92199500Y-118184902D02*
X92999500Y-118184902D01*
X173674500Y-35435800D02*
X173674500Y-41235800D01*
X140624500Y-131184902D02*
X140624500Y-130184902D01*
X92999500Y-130184902D02*
X92199500Y-130184902D01*
X174474500Y-32335800D02*
X174474500Y-35435800D01*
X154624500Y-118184902D02*
X155424500Y-118184902D01*
X106999500Y-130184902D02*
X106999500Y-131184902D01*
X158874500Y-44335800D02*
X158874500Y-41235800D01*
X154624500Y-127084902D02*
X155424500Y-127084902D01*
X92999500Y-118184902D02*
X92999500Y-117184902D01*
X158874500Y-41235800D02*
X159674500Y-41235800D01*
X140624500Y-121284902D02*
X139824500Y-121284902D01*
X92999500Y-131184902D02*
X92999500Y-130184902D01*
X173674500Y-41235800D02*
X174474500Y-41235800D01*
X154624500Y-130184902D02*
X154624500Y-131184902D01*
X106999500Y-117184902D02*
X106999500Y-118184902D01*
X174474500Y-44335800D02*
X173674500Y-44335800D01*
X140624500Y-118184902D02*
X140624500Y-117184902D01*
X107799500Y-121284902D02*
X106999500Y-121284902D01*
X173674500Y-32335800D02*
X174474500Y-32335800D01*
X155424500Y-130184902D02*
X154624500Y-130184902D01*
X159674500Y-35435800D02*
X158874500Y-35435800D01*
X154624500Y-117184902D02*
X154624500Y-118184902D01*
X54899500Y-136234902D02*
X68899500Y-136234902D01*
X158874500Y-32335800D02*
X159674500Y-32335800D01*
X139824500Y-118184902D02*
X140624500Y-118184902D01*
X68899500Y-136234902D02*
X68899500Y-137234902D01*
X159674500Y-44335800D02*
X158874500Y-44335800D01*
X174474500Y-99134902D02*
X174474500Y-102234902D01*
X68899500Y-137234902D02*
X69699500Y-137234902D01*
X173674500Y-44335800D02*
X173674500Y-45335800D01*
X173674500Y-112134902D02*
X159674500Y-112134902D01*
X69699500Y-137234902D02*
X69699500Y-140334902D01*
X159674500Y-32335800D02*
X159674500Y-31335800D01*
X173674500Y-102234902D02*
X173674500Y-108034902D01*
X69699500Y-140334902D02*
X68899500Y-140334902D01*
X159674500Y-45335800D02*
X159674500Y-44335800D01*
X173674500Y-31335800D02*
X173674500Y-32335800D01*
X159674500Y-108034902D02*
X159674500Y-102234902D01*
X68899500Y-146134902D02*
X69699500Y-146134902D01*
X174474500Y-35435800D02*
X173674500Y-35435800D01*
X158874500Y-102234902D02*
X158874500Y-99134902D01*
X69699500Y-149234902D02*
X68899500Y-149234902D01*
X178724500Y-31335800D02*
X192724500Y-31335800D01*
X158874500Y-111134902D02*
X158874500Y-108034902D01*
X68899500Y-149234902D02*
X68899500Y-150234902D01*
X193524500Y-41235800D02*
X193524500Y-44335800D01*
X174474500Y-102234902D02*
X173674500Y-102234902D01*
X54899500Y-149234902D02*
X54099500Y-149234902D01*
X177924500Y-35435800D02*
X177924500Y-32335800D01*
X159674500Y-111134902D02*
X158874500Y-111134902D01*
X54099500Y-149234902D02*
X54099500Y-146134902D01*
X192724500Y-45335800D02*
X178724500Y-45335800D01*
X158874500Y-108034902D02*
X159674500Y-108034902D01*
X54099500Y-146134902D02*
X54899500Y-146134902D01*
X178724500Y-41235800D02*
X178724500Y-35435800D01*
X159674500Y-112134902D02*
X159674500Y-111134902D01*
X54899500Y-146134902D02*
X54899500Y-140334902D01*
X192724500Y-35435800D02*
X192724500Y-41235800D01*
X173674500Y-99134902D02*
X174474500Y-99134902D01*
X54899500Y-140334902D02*
X54099500Y-140334902D01*
X193524500Y-32335800D02*
X193524500Y-35435800D01*
X173674500Y-108034902D02*
X174474500Y-108034902D01*
X54099500Y-140334902D02*
X54099500Y-137234902D01*
X177924500Y-44335800D02*
X177924500Y-41235800D01*
X159674500Y-102234902D02*
X158874500Y-102234902D01*
X54099500Y-137234902D02*
X54899500Y-137234902D01*
X177924500Y-41235800D02*
X178724500Y-41235800D01*
X173674500Y-111134902D02*
X173674500Y-112134902D01*
X54899500Y-137234902D02*
X54899500Y-136234902D01*
X192724500Y-41235800D02*
X193524500Y-41235800D01*
X159674500Y-99134902D02*
X159674500Y-98134902D01*
X193524500Y-44335800D02*
X192724500Y-44335800D01*
X174474500Y-111134902D02*
X173674500Y-111134902D01*
X192724500Y-32335800D02*
X193524500Y-32335800D01*
X173674500Y-98134902D02*
X173674500Y-99134902D01*
X73949500Y-136234902D02*
X87949500Y-136234902D01*
X178724500Y-35435800D02*
X177924500Y-35435800D01*
X158874500Y-99134902D02*
X159674500Y-99134902D01*
X88749500Y-146134902D02*
X88749500Y-149234902D01*
X177924500Y-32335800D02*
X178724500Y-32335800D01*
X174474500Y-118184902D02*
X174474500Y-121284902D01*
X178724500Y-44335800D02*
X177924500Y-44335800D01*
X173674500Y-131184902D02*
X159674500Y-131184902D01*
X192724500Y-44335800D02*
X192724500Y-45335800D01*
X173674500Y-121284902D02*
X173674500Y-127084902D01*
X73149500Y-140334902D02*
X73149500Y-137234902D01*
X178724500Y-32335800D02*
X178724500Y-31335800D01*
X178724500Y-45335800D02*
X178724500Y-44335800D01*
X159674500Y-127084902D02*
X159674500Y-121284902D01*
X73949500Y-146134902D02*
X73949500Y-140334902D01*
X192724500Y-31335800D02*
X192724500Y-32335800D01*
X193524500Y-35435800D02*
X192724500Y-35435800D01*
X158874500Y-121284902D02*
X158874500Y-118184902D01*
X88749500Y-137234902D02*
X88749500Y-140334902D01*
X54899500Y-60034902D02*
X68899500Y-60034902D01*
X158874500Y-130184902D02*
X158874500Y-127084902D01*
X73149500Y-149234902D02*
X73149500Y-146134902D01*
X68899500Y-60034902D02*
X68899500Y-61034902D01*
X174474500Y-127084902D02*
X174474500Y-130184902D01*
X73149500Y-146134902D02*
X73949500Y-146134902D01*
X68899500Y-61034902D02*
X69699500Y-61034902D01*
X159674500Y-117184902D02*
X173674500Y-117184902D01*
X87949500Y-146134902D02*
X88749500Y-146134902D01*
X69699500Y-61034902D02*
X69699500Y-64134902D01*
X174474500Y-121284902D02*
X173674500Y-121284902D01*
X88749500Y-149234902D02*
X87949500Y-149234902D01*
X69699500Y-64134902D02*
X68899500Y-64134902D01*
X159674500Y-130184902D02*
X158874500Y-130184902D01*
X87949500Y-137234902D02*
X88749500Y-137234902D01*
X68899500Y-64134902D02*
X68899500Y-69934902D01*
X158874500Y-127084902D02*
X159674500Y-127084902D01*
X73949500Y-140334902D02*
X73149500Y-140334902D01*
X68899500Y-69934902D02*
X69699500Y-69934902D01*
X159674500Y-131184902D02*
X159674500Y-130184902D01*
X73149500Y-137234902D02*
X73949500Y-137234902D01*
X69699500Y-69934902D02*
X69699500Y-73034902D01*
X173674500Y-118184902D02*
X174474500Y-118184902D01*
X73949500Y-149234902D02*
X73149500Y-149234902D01*
X69699500Y-73034902D02*
X68899500Y-73034902D01*
X173674500Y-127084902D02*
X174474500Y-127084902D01*
X87949500Y-149234902D02*
X87949500Y-150234902D01*
X68899500Y-73034902D02*
X68899500Y-74034902D01*
X159674500Y-121284902D02*
X158874500Y-121284902D01*
X73949500Y-137234902D02*
X73949500Y-136234902D01*
X68899500Y-74034902D02*
X54899500Y-74034902D01*
X173674500Y-130184902D02*
X173674500Y-131184902D01*
X73949500Y-150234902D02*
X73949500Y-149234902D01*
X54899500Y-74034902D02*
X54899500Y-73034902D01*
X159674500Y-118184902D02*
X159674500Y-117184902D01*
X87949500Y-136234902D02*
X87949500Y-137234902D01*
X54899500Y-73034902D02*
X54099500Y-73034902D01*
X174474500Y-130184902D02*
X173674500Y-130184902D01*
X88749500Y-140334902D02*
X87949500Y-140334902D01*
X54099500Y-73034902D02*
X54099500Y-69934902D01*
X173674500Y-117184902D02*
X173674500Y-118184902D01*
X92999500Y-136234902D02*
X106999500Y-136234902D01*
X54099500Y-69934902D02*
X54899500Y-69934902D01*
X158874500Y-118184902D02*
X159674500Y-118184902D01*
X107799500Y-146134902D02*
X107799500Y-149234902D01*
X54899500Y-69934902D02*
X54899500Y-64134902D01*
X178724500Y-60034902D02*
X192724500Y-60034902D01*
X54899500Y-64134902D02*
X54099500Y-64134902D01*
X192724500Y-60034902D02*
X192724500Y-61034902D01*
X54099500Y-64134902D02*
X54099500Y-61034902D01*
X192724500Y-61034902D02*
X193524500Y-61034902D01*
X92199500Y-140334902D02*
X92199500Y-137234902D01*
X54099500Y-61034902D02*
X54899500Y-61034902D01*
X193524500Y-61034902D02*
X193524500Y-64134902D01*
X106999500Y-150234902D02*
X92999500Y-150234902D01*
X54899500Y-61034902D02*
X54899500Y-60034902D01*
X192724500Y-69934902D02*
X193524500Y-69934902D01*
X107799500Y-137234902D02*
X107799500Y-140334902D01*
X73949500Y-60034902D02*
X87949500Y-60034902D01*
X193524500Y-69934902D02*
X193524500Y-73034902D01*
X92199500Y-149234902D02*
X92199500Y-146134902D01*
X88749500Y-69934902D02*
X88749500Y-73034902D01*
X192724500Y-74034902D02*
X178724500Y-74034902D01*
X107799500Y-149234902D02*
X106999500Y-149234902D01*
X73149500Y-64134902D02*
X73149500Y-61034902D01*
X178724500Y-74034902D02*
X178724500Y-73034902D01*
X106999500Y-137234902D02*
X107799500Y-137234902D01*
X87949500Y-74034902D02*
X73949500Y-74034902D01*
X178724500Y-73034902D02*
X177924500Y-73034902D01*
X92999500Y-140334902D02*
X92199500Y-140334902D01*
X73949500Y-69934902D02*
X73949500Y-64134902D01*
X177924500Y-73034902D02*
X177924500Y-69934902D01*
X92199500Y-137234902D02*
X92999500Y-137234902D01*
X87949500Y-64134902D02*
X87949500Y-69934902D01*
X177924500Y-69934902D02*
X178724500Y-69934902D01*
X92999500Y-149234902D02*
X92199500Y-149234902D01*
X88749500Y-61034902D02*
X88749500Y-64134902D01*
X178724500Y-69934902D02*
X178724500Y-64134902D01*
X106999500Y-149234902D02*
X106999500Y-150234902D01*
X73149500Y-73034902D02*
X73149500Y-69934902D01*
X178724500Y-64134902D02*
X177924500Y-64134902D01*
X92999500Y-137234902D02*
X92999500Y-136234902D01*
X73149500Y-69934902D02*
X73949500Y-69934902D01*
X177924500Y-64134902D02*
X177924500Y-61034902D01*
X92999500Y-150234902D02*
X92999500Y-149234902D01*
X196599500Y-57509902D02*
G75*
G03*
X196599500Y-57509902I-1350000J0D01*
G01*
X87949500Y-69934902D02*
X88749500Y-69934902D01*
X177924500Y-61034902D02*
X178724500Y-61034902D01*
X106999500Y-136234902D02*
X106999500Y-137234902D01*
X88749500Y-73034902D02*
X87949500Y-73034902D01*
X178724500Y-61034902D02*
X178724500Y-60034902D01*
X107799500Y-140334902D02*
X106999500Y-140334902D01*
X87949500Y-61034902D02*
X88749500Y-61034902D01*
X73949500Y-64134902D02*
X73149500Y-64134902D01*
X73149500Y-61034902D02*
X73949500Y-61034902D01*
X53723500Y-152761902D02*
G75*
G03*
X53723500Y-152761902I-1350000J0D01*
G01*
X73949500Y-73034902D02*
X73149500Y-73034902D01*
X159674500Y-136234902D02*
X173674500Y-136234902D01*
X135574500Y-61034902D02*
X136374500Y-61034902D01*
X87949500Y-73034902D02*
X87949500Y-74034902D01*
X173674500Y-136234902D02*
X173674500Y-137234902D01*
X136374500Y-61034902D02*
X136374500Y-64134902D01*
X73949500Y-61034902D02*
X73949500Y-60034902D01*
X173674500Y-137234902D02*
X174474500Y-137234902D01*
X136374500Y-64134902D02*
X135574500Y-64134902D01*
X73949500Y-74034902D02*
X73949500Y-73034902D01*
X174474500Y-137234902D02*
X174474500Y-140334902D01*
X135574500Y-64134902D02*
X135574500Y-69934902D01*
X87949500Y-60034902D02*
X87949500Y-61034902D01*
X174474500Y-140334902D02*
X173674500Y-140334902D01*
X135574500Y-69934902D02*
X136374500Y-69934902D01*
X88749500Y-64134902D02*
X87949500Y-64134902D01*
X173674500Y-140334902D02*
X173674500Y-146134902D01*
X136374500Y-69934902D02*
X136374500Y-73034902D01*
X53723500Y-57509902D02*
G75*
G03*
X53723500Y-57509902I-1350000J0D01*
G01*
X92999500Y-60034902D02*
X106999500Y-60034902D01*
X173674500Y-146134902D02*
X174474500Y-146134902D01*
X136374500Y-73034902D02*
X135574500Y-73034902D01*
X107799500Y-69934902D02*
X107799500Y-73034902D01*
X173674500Y-149234902D02*
X173674500Y-150234902D01*
X121574500Y-74034902D02*
X121574500Y-73034902D01*
X92199500Y-64134902D02*
X92199500Y-61034902D01*
X154624500Y-93084902D02*
X140624500Y-93084902D01*
X173674500Y-150234902D02*
X159674500Y-150234902D01*
X121574500Y-73034902D02*
X120774500Y-73034902D01*
X106999500Y-74034902D02*
X92999500Y-74034902D01*
X154624500Y-83184902D02*
X154624500Y-88984902D01*
X159674500Y-150234902D02*
X159674500Y-149234902D01*
X120774500Y-73034902D02*
X120774500Y-69934902D01*
X92999500Y-69934902D02*
X92999500Y-64134902D01*
X159674500Y-149234902D02*
X158874500Y-149234902D01*
X120774500Y-69934902D02*
X121574500Y-69934902D01*
X106999500Y-64134902D02*
X106999500Y-69934902D01*
X140624500Y-88984902D02*
X140624500Y-83184902D01*
X158874500Y-149234902D02*
X158874500Y-146134902D01*
X121574500Y-69934902D02*
X121574500Y-64134902D01*
X107799500Y-61034902D02*
X107799500Y-64134902D01*
X158874500Y-146134902D02*
X159674500Y-146134902D01*
X121574500Y-64134902D02*
X120774500Y-64134902D01*
X92199500Y-73034902D02*
X92199500Y-69934902D01*
X139824500Y-83184902D02*
X139824500Y-80084902D01*
X159674500Y-146134902D02*
X159674500Y-140334902D01*
X120774500Y-64134902D02*
X120774500Y-61034902D01*
X92199500Y-69934902D02*
X92999500Y-69934902D01*
X139824500Y-92084902D02*
X139824500Y-88984902D01*
X159674500Y-140334902D02*
X158874500Y-140334902D01*
X120774500Y-61034902D02*
X121574500Y-61034902D01*
X106999500Y-69934902D02*
X107799500Y-69934902D01*
X155424500Y-88984902D02*
X155424500Y-92084902D01*
X121574500Y-60034902D02*
X135574500Y-60034902D01*
X135574500Y-60034902D02*
X135574500Y-61034902D01*
X121574500Y-61034902D02*
X121574500Y-60034902D01*
X158874500Y-140334902D02*
X158874500Y-137234902D01*
X136374500Y-80084902D02*
X136374500Y-83184902D01*
X135574500Y-93084902D02*
X121574500Y-93084902D01*
X135574500Y-83184902D02*
X135574500Y-88984902D01*
X131099500Y-136234902D02*
X145099500Y-136234902D01*
X121574500Y-88984902D02*
X121574500Y-83184902D01*
X145099500Y-137234902D02*
X145899500Y-137234902D01*
X120774500Y-92084902D02*
X120774500Y-88984902D01*
X136374500Y-88984902D02*
X136374500Y-92084902D01*
X145099500Y-146134902D02*
X145899500Y-146134902D01*
X121574500Y-79084902D02*
X135574500Y-79084902D01*
X145899500Y-146134902D02*
X145899500Y-149234902D01*
X136374500Y-83184902D02*
X135574500Y-83184902D01*
X145899500Y-149234902D02*
X145099500Y-149234902D01*
X135574500Y-80084902D02*
X136374500Y-80084902D01*
X131099500Y-149234902D02*
X130299500Y-149234902D01*
X121574500Y-83184902D02*
X120774500Y-83184902D01*
X130299500Y-146134902D02*
X131099500Y-146134902D01*
X154624500Y-61034902D02*
X155424500Y-61034902D01*
X123099500Y-143734902D02*
X123099500Y-150004902D01*
X140624500Y-64134902D02*
X139824500Y-64134902D01*
X124824500Y-150004902D02*
X124824500Y-150984902D01*
X121574500Y-92084902D02*
X120774500Y-92084902D01*
X145099500Y-149234902D02*
X145099500Y-150234902D01*
X155424500Y-80084902D02*
X155424500Y-83184902D01*
X120774500Y-88984902D02*
X121574500Y-88984902D01*
X145099500Y-150234902D02*
X131099500Y-150234902D01*
X121574500Y-93084902D02*
X121574500Y-92084902D01*
X131099500Y-150234902D02*
X131099500Y-149234902D01*
X135574500Y-88984902D02*
X136374500Y-88984902D01*
X130299500Y-149234902D02*
X130299500Y-146134902D01*
X135574500Y-92084902D02*
X135574500Y-93084902D01*
X121574500Y-80084902D02*
X121574500Y-79084902D01*
X131099500Y-140334902D02*
X130299500Y-140334902D01*
X136374500Y-92084902D02*
X135574500Y-92084902D01*
X130299500Y-140334902D02*
X130299500Y-137234902D01*
X135574500Y-79084902D02*
X135574500Y-80084902D01*
X130299500Y-137234902D02*
X131099500Y-137234902D01*
X140624500Y-79084902D02*
X154624500Y-79084902D01*
X107799500Y-73034902D02*
X106999500Y-73034902D01*
X73949500Y-41235800D02*
X73949500Y-35435800D01*
X158874500Y-88984902D02*
X159674500Y-88984902D01*
X73949500Y-83184902D02*
X73149500Y-83184902D01*
X88749500Y-32335800D02*
X88749500Y-35435800D01*
X173674500Y-80084902D02*
X174474500Y-80084902D01*
X73949500Y-92084902D02*
X73149500Y-92084902D01*
X122274500Y-140934902D02*
X122274500Y-143734902D01*
X139824500Y-69934902D02*
X140624500Y-69934902D01*
X87949500Y-93084902D02*
X73949500Y-93084902D01*
X87949500Y-41235800D02*
X88749500Y-41235800D01*
X173674500Y-92084902D02*
X173674500Y-93084902D01*
X73949500Y-93084902D02*
X73949500Y-92084902D01*
X123099500Y-150004902D02*
X124824500Y-150004902D01*
X154624500Y-69934902D02*
X155424500Y-69934902D01*
X88749500Y-80084902D02*
X88749500Y-83184902D01*
X158874500Y-83184902D02*
X158874500Y-80084902D01*
X88749500Y-44335800D02*
X87949500Y-44335800D01*
X159674500Y-80084902D02*
X159674500Y-79084902D01*
X87949500Y-79084902D02*
X87949500Y-80084902D01*
X115636500Y-57509902D02*
G75*
G03*
X115636500Y-57509902I-1350000J0D01*
G01*
X73149500Y-92084902D02*
X73149500Y-88984902D01*
X158874500Y-92084902D02*
X158874500Y-88984902D01*
X87949500Y-32335800D02*
X88749500Y-32335800D01*
X174474500Y-92084902D02*
X173674500Y-92084902D01*
X88749500Y-83184902D02*
X87949500Y-83184902D01*
X124824500Y-150984902D02*
X128124500Y-150984902D01*
X154624500Y-73034902D02*
X154624500Y-74034902D01*
X73149500Y-88984902D02*
X73949500Y-88984902D01*
X174474500Y-88984902D02*
X174474500Y-92084902D01*
X73949500Y-35435800D02*
X73149500Y-35435800D01*
X173674500Y-79084902D02*
X173674500Y-80084902D01*
X92999500Y-79084902D02*
X106999500Y-79084902D01*
X128124500Y-150984902D02*
X128124500Y-150004902D01*
X140624500Y-61034902D02*
X140624500Y-60034902D01*
X87949500Y-88984902D02*
X88749500Y-88984902D01*
X159674500Y-79084902D02*
X173674500Y-79084902D01*
X73149500Y-32335800D02*
X73949500Y-32335800D01*
X158874500Y-80084902D02*
X159674500Y-80084902D01*
X107799500Y-88984902D02*
X107799500Y-92084902D01*
X128124500Y-150004902D02*
X129849500Y-150004902D01*
X155424500Y-73034902D02*
X154624500Y-73034902D01*
X88749500Y-92084902D02*
X87949500Y-92084902D01*
X174474500Y-83184902D02*
X173674500Y-83184902D01*
X73949500Y-32335800D02*
X73949500Y-31335800D01*
X136374500Y-99134902D02*
X136374500Y-102234902D01*
X92199500Y-83184902D02*
X92199500Y-80084902D01*
X131099500Y-145534902D02*
X131099500Y-146134902D01*
X73149500Y-80084902D02*
X73949500Y-80084902D01*
X159674500Y-93084902D02*
X159674500Y-92084902D01*
X73949500Y-45335800D02*
X73949500Y-44335800D01*
X135574500Y-112134902D02*
X121574500Y-112134902D01*
X106999500Y-93084902D02*
X92999500Y-93084902D01*
X145099500Y-140934902D02*
X146349500Y-140934902D01*
X87949500Y-31335800D02*
X87949500Y-32335800D01*
X135574500Y-102234902D02*
X135574500Y-108034902D01*
X92999500Y-88984902D02*
X92999500Y-83184902D01*
X146349500Y-140934902D02*
X146349500Y-137704902D01*
X87949500Y-92084902D02*
X87949500Y-93084902D01*
X173674500Y-88984902D02*
X174474500Y-88984902D01*
X92999500Y-31335800D02*
X106999500Y-31335800D01*
X121574500Y-108034902D02*
X121574500Y-102234902D01*
X107799500Y-80084902D02*
X107799500Y-83184902D01*
X120774500Y-102234902D02*
X120774500Y-99134902D01*
X92199500Y-88984902D02*
X92999500Y-88984902D01*
X120774500Y-111134902D02*
X120774500Y-108034902D01*
X106999500Y-88984902D02*
X107799500Y-88984902D01*
X92199500Y-35435800D02*
X92199500Y-32335800D01*
X136374500Y-108034902D02*
X136374500Y-111134902D01*
X107799500Y-92084902D02*
X106999500Y-92084902D01*
X106999500Y-45335800D02*
X92999500Y-45335800D01*
X121574500Y-98134902D02*
X135574500Y-98134902D01*
X106999500Y-80084902D02*
X107799500Y-80084902D01*
X92999500Y-41235800D02*
X92999500Y-35435800D01*
X136374500Y-102234902D02*
X135574500Y-102234902D01*
X92999500Y-83184902D02*
X92199500Y-83184902D01*
X106999500Y-35435800D02*
X106999500Y-41235800D01*
X121574500Y-111134902D02*
X120774500Y-111134902D01*
X92199500Y-80084902D02*
X92999500Y-80084902D01*
X92999500Y-45335800D02*
X92999500Y-44335800D01*
X135574500Y-131184902D02*
X121574500Y-131184902D01*
X69699500Y-121284902D02*
X68899500Y-121284902D01*
X92999500Y-92084902D02*
X92199500Y-92084902D01*
X120774500Y-108034902D02*
X121574500Y-108034902D01*
X154624500Y-74034902D02*
X140624500Y-74034902D01*
X139824500Y-88984902D02*
X140624500Y-88984902D01*
X92199500Y-61034902D02*
X92999500Y-61034902D01*
X106999500Y-31335800D02*
X106999500Y-32335800D01*
X135574500Y-121284902D02*
X135574500Y-127084902D01*
X68899500Y-121284902D02*
X68899500Y-127084902D01*
X106999500Y-92084902D02*
X106999500Y-93084902D01*
X121574500Y-112134902D02*
X121574500Y-111134902D01*
X154624500Y-64134902D02*
X154624500Y-69934902D01*
X131099500Y-140334902D02*
X131099500Y-140934902D01*
X140624500Y-93084902D02*
X140624500Y-92084902D01*
X92999500Y-73034902D02*
X92199500Y-73034902D01*
X87949500Y-35435800D02*
X87949500Y-41235800D01*
X123099500Y-140934902D02*
X122274500Y-140934902D01*
X140624500Y-73034902D02*
X139824500Y-73034902D01*
X73149500Y-83184902D02*
X73149500Y-80084902D01*
X173674500Y-83184902D02*
X173674500Y-88984902D01*
X121574500Y-127084902D02*
X121574500Y-121284902D01*
X69699500Y-127084902D02*
X69699500Y-130184902D01*
X92999500Y-93084902D02*
X92999500Y-92084902D01*
X135574500Y-108034902D02*
X136374500Y-108034902D01*
X140624500Y-69934902D02*
X140624500Y-64134902D01*
X129849500Y-140934902D02*
X129849500Y-137704902D01*
X154624500Y-88984902D02*
X155424500Y-88984902D01*
X92999500Y-61034902D02*
X92999500Y-60034902D01*
X92999500Y-32335800D02*
X92999500Y-31335800D01*
X136374500Y-118184902D02*
X136374500Y-121284902D01*
X69699500Y-118184902D02*
X69699500Y-121284902D01*
X155424500Y-61034902D02*
X155424500Y-64134902D01*
X140624500Y-92084902D02*
X139824500Y-92084902D01*
X92999500Y-64134902D02*
X92199500Y-64134902D01*
X73149500Y-41235800D02*
X73949500Y-41235800D01*
X159674500Y-83184902D02*
X158874500Y-83184902D01*
X73949500Y-80084902D02*
X73949500Y-79084902D01*
X87949500Y-83184902D02*
X87949500Y-88984902D01*
X135574500Y-32335800D02*
X136374500Y-32335800D01*
X120774500Y-130184902D02*
X120774500Y-127084902D01*
X68899500Y-131184902D02*
X54899500Y-131184902D01*
X139824500Y-73034902D02*
X139824500Y-69934902D01*
X128124500Y-136784902D02*
X124824500Y-136784902D01*
X140624500Y-80084902D02*
X140624500Y-79084902D01*
X107799500Y-64134902D02*
X106999500Y-64134902D01*
X107799500Y-32335800D02*
X107799500Y-35435800D01*
X73149500Y-44335800D02*
X73149500Y-41235800D01*
X122274500Y-143734902D02*
X123099500Y-143734902D01*
X140624500Y-74034902D02*
X140624500Y-73034902D01*
X73949500Y-88984902D02*
X73949500Y-83184902D01*
X159674500Y-88984902D02*
X159674500Y-83184902D01*
X135574500Y-31335800D02*
X135574500Y-32335800D01*
X120774500Y-121284902D02*
X120774500Y-118184902D01*
X68899500Y-130184902D02*
X68899500Y-131184902D01*
X107799500Y-83184902D02*
X106999500Y-83184902D01*
X135574500Y-111134902D02*
X135574500Y-112134902D01*
X154624500Y-92084902D02*
X154624500Y-93084902D01*
X106999500Y-60034902D02*
X106999500Y-61034902D01*
X106999500Y-44335800D02*
X106999500Y-45335800D01*
X120774500Y-99134902D02*
X121574500Y-99134902D01*
X68899500Y-118184902D02*
X69699500Y-118184902D01*
X120774500Y-80084902D02*
X121574500Y-80084902D01*
X131099500Y-137234902D02*
X131099500Y-136234902D01*
X155424500Y-83184902D02*
X154624500Y-83184902D01*
X106999500Y-61034902D02*
X107799500Y-61034902D01*
X92999500Y-44335800D02*
X92199500Y-44335800D01*
X135574500Y-98134902D02*
X135574500Y-99134902D01*
X68899500Y-117184902D02*
X68899500Y-118184902D01*
X92199500Y-32335800D02*
X92999500Y-32335800D01*
X136374500Y-111134902D02*
X135574500Y-111134902D01*
X54899500Y-117184902D02*
X68899500Y-117184902D01*
X92999500Y-35435800D02*
X92199500Y-35435800D01*
X121574500Y-99134902D02*
X121574500Y-98134902D01*
X106999500Y-32335800D02*
X107799500Y-32335800D01*
X107799500Y-44335800D02*
X106999500Y-44335800D01*
X121574500Y-102234902D02*
X120774500Y-102234902D01*
X106999500Y-79084902D02*
X106999500Y-80084902D01*
X92199500Y-92084902D02*
X92199500Y-88984902D01*
X106999500Y-41235800D02*
X107799500Y-41235800D01*
X92199500Y-41235800D02*
X92999500Y-41235800D01*
X135574500Y-99134902D02*
X136374500Y-99134902D01*
X92999500Y-80084902D02*
X92999500Y-79084902D01*
X106999500Y-83184902D02*
X106999500Y-88984902D01*
X92199500Y-44335800D02*
X92199500Y-41235800D01*
X87949500Y-45335800D02*
X73949500Y-45335800D01*
X159674500Y-92084902D02*
X158874500Y-92084902D01*
X87949500Y-80084902D02*
X88749500Y-80084902D01*
X73149500Y-35435800D02*
X73149500Y-32335800D01*
X124824500Y-136784902D02*
X124824500Y-137704902D01*
X155424500Y-69934902D02*
X155424500Y-73034902D01*
X88749500Y-88984902D02*
X88749500Y-92084902D01*
X158874500Y-61034902D02*
X159674500Y-61034902D01*
X73949500Y-79084902D02*
X87949500Y-79084902D01*
X173674500Y-60034902D02*
X173674500Y-61034902D01*
X88749500Y-41235800D02*
X88749500Y-44335800D01*
X73949500Y-31335800D02*
X87949500Y-31335800D01*
X54899500Y-80084902D02*
X54899500Y-79084902D01*
X173674500Y-73034902D02*
X173674500Y-74034902D01*
X54099500Y-83184902D02*
X54099500Y-80084902D01*
X173674500Y-69934902D02*
X174474500Y-69934902D01*
X54099500Y-32335800D02*
X54899500Y-32335800D01*
X54899500Y-88984902D02*
X54899500Y-83184902D01*
X159674500Y-74034902D02*
X159674500Y-73034902D01*
X54099500Y-35435800D02*
X54099500Y-32335800D01*
X173674500Y-93084902D02*
X159674500Y-93084902D01*
X54099500Y-88984902D02*
X54899500Y-88984902D01*
X158874500Y-69934902D02*
X159674500Y-69934902D01*
X54899500Y-35435800D02*
X54099500Y-35435800D01*
X174474500Y-80084902D02*
X174474500Y-83184902D01*
X54099500Y-92084902D02*
X54099500Y-88984902D01*
X159674500Y-73034902D02*
X158874500Y-73034902D01*
X54899500Y-41235800D02*
X54899500Y-35435800D01*
X54899500Y-92084902D02*
X54099500Y-92084902D01*
X174474500Y-64134902D02*
X173674500Y-64134902D01*
X54099500Y-41235800D02*
X54899500Y-41235800D01*
X54899500Y-93084902D02*
X54899500Y-92084902D01*
X159674500Y-60034902D02*
X173674500Y-60034902D01*
X54099500Y-44335800D02*
X54099500Y-41235800D01*
X174474500Y-73034902D02*
X173674500Y-73034902D01*
X68899500Y-93084902D02*
X54899500Y-93084902D01*
X174474500Y-69934902D02*
X174474500Y-73034902D01*
X54899500Y-44335800D02*
X54099500Y-44335800D01*
X159674500Y-61034902D02*
X159674500Y-60034902D01*
X68899500Y-92084902D02*
X68899500Y-93084902D01*
X158874500Y-73034902D02*
X158874500Y-69934902D01*
X54899500Y-45335800D02*
X54899500Y-44335800D01*
X69699500Y-92084902D02*
X68899500Y-92084902D01*
X158874500Y-64134902D02*
X158874500Y-61034902D01*
X68899500Y-45335800D02*
X54899500Y-45335800D01*
X159674500Y-64134902D02*
X158874500Y-64134902D01*
X54099500Y-80084902D02*
X54899500Y-80084902D01*
X69699500Y-88984902D02*
X69699500Y-92084902D01*
X68899500Y-44335800D02*
X68899500Y-45335800D01*
X68899500Y-88984902D02*
X69699500Y-88984902D01*
X159674500Y-69934902D02*
X159674500Y-64134902D01*
X69699500Y-44335800D02*
X68899500Y-44335800D01*
X173674500Y-61034902D02*
X174474500Y-61034902D01*
X54899500Y-83184902D02*
X54099500Y-83184902D01*
X68899500Y-83184902D02*
X68899500Y-88984902D01*
X69699500Y-41235800D02*
X69699500Y-44335800D01*
X69699500Y-83184902D02*
X68899500Y-83184902D01*
X173674500Y-64134902D02*
X173674500Y-69934902D01*
X68899500Y-41235800D02*
X69699500Y-41235800D01*
X69699500Y-80084902D02*
X69699500Y-83184902D01*
X173674500Y-74034902D02*
X159674500Y-74034902D01*
X68899500Y-35435800D02*
X68899500Y-41235800D01*
X68899500Y-80084902D02*
X69699500Y-80084902D01*
X174474500Y-61034902D02*
X174474500Y-64134902D01*
X139824500Y-61034902D02*
X140624500Y-61034902D01*
X129849500Y-145534902D02*
X131099500Y-145534902D01*
X69699500Y-35435800D02*
X68899500Y-35435800D01*
X68899500Y-79084902D02*
X68899500Y-80084902D01*
X139824500Y-80084902D02*
X140624500Y-80084902D01*
X154624500Y-60034902D02*
X154624500Y-61034902D01*
X129849500Y-150004902D02*
X129849500Y-145534902D01*
X69699500Y-32335800D02*
X69699500Y-35435800D01*
X54899500Y-79084902D02*
X68899500Y-79084902D01*
X154624500Y-79084902D02*
X154624500Y-80084902D01*
X68899500Y-32335800D02*
X69699500Y-32335800D01*
X68899500Y-31335800D02*
X68899500Y-32335800D01*
X145899500Y-137234902D02*
X145899500Y-140334902D01*
X54899500Y-31335800D02*
X68899500Y-31335800D01*
X195249500Y-157149500D02*
X52375500Y-157149500D01*
X200012500Y-28562500D02*
X200012500Y-152386500D01*
X159674500Y-137234902D02*
X159674500Y-136234902D01*
X158874500Y-137234902D02*
X159674500Y-137234902D01*
X155424500Y-92084902D02*
X154624500Y-92084902D01*
X140624500Y-83184902D02*
X139824500Y-83184902D01*
X92999500Y-74034902D02*
X92999500Y-73034902D01*
X154624500Y-80084902D02*
X155424500Y-80084902D01*
X106999500Y-73034902D02*
X106999500Y-74034902D01*
X87949500Y-140334902D02*
X87949500Y-146134902D01*
X87949500Y-150234902D02*
X73949500Y-150234902D01*
X69699500Y-146134902D02*
X69699500Y-149234902D01*
X68899500Y-140334902D02*
X68899500Y-146134902D01*
X107799500Y-118184902D02*
X107799500Y-121284902D01*
X92999500Y-127084902D02*
X92999500Y-121284902D01*
X88749500Y-118184902D02*
X88749500Y-121284902D01*
X73949500Y-127084902D02*
X73949500Y-121284902D01*
X196599500Y-152386500D02*
G75*
G03*
X196599500Y-152386500I-1350000J0D01*
G01*
X69699500Y-130184902D02*
X68899500Y-130184902D01*
X68899500Y-127084902D02*
X69699500Y-127084902D01*
X146349500Y-137704902D02*
X148074500Y-137704902D01*
X131099500Y-140934902D02*
X129849500Y-140934902D01*
X145099500Y-136234902D02*
X145099500Y-137234902D01*
X148074500Y-137704902D02*
X148074500Y-136784902D01*
X148074500Y-136784902D02*
X151374500Y-136784902D01*
X151374500Y-136784902D02*
X151374500Y-137704902D01*
X151374500Y-137704902D02*
X153099500Y-137704902D01*
X153099500Y-137704902D02*
X153099500Y-140934902D01*
X153099500Y-140934902D02*
X153924500Y-140934902D01*
X153924500Y-140934902D02*
X153924500Y-143734902D01*
X153924500Y-143734902D02*
X153099500Y-143734902D01*
X153099500Y-143734902D02*
X153099500Y-150004902D01*
X153099500Y-150004902D02*
X151374500Y-150004902D01*
X151374500Y-150004902D02*
X151374500Y-150984902D01*
X151374500Y-150984902D02*
X148074500Y-150984902D01*
X148074500Y-150984902D02*
X148074500Y-150004902D01*
X148074500Y-150004902D02*
X146349500Y-150004902D01*
X146349500Y-150004902D02*
X146349500Y-145534902D01*
X146349500Y-145534902D02*
X145099500Y-145534902D01*
X145099500Y-140334902D02*
X145099500Y-140934902D01*
X145099500Y-145534902D02*
X145099500Y-146134902D01*
X192724500Y-126336500D02*
X192724500Y-140336500D01*
X192724500Y-140336500D02*
X191724500Y-140336500D01*
X191724500Y-140336500D02*
X191724500Y-141136500D01*
X191724500Y-141136500D02*
X188624500Y-141136500D01*
X188624500Y-141136500D02*
X188624500Y-140336500D01*
X182824500Y-140336500D02*
X182824500Y-141136500D01*
X182824500Y-141136500D02*
X179724500Y-141136500D01*
X179724500Y-141136500D02*
X179724500Y-140336500D01*
X179724500Y-140336500D02*
X178724500Y-140336500D01*
X178724500Y-140336500D02*
X178724500Y-126336500D01*
X178724500Y-126336500D02*
X179724500Y-126336500D01*
X179724500Y-126336500D02*
X179724500Y-125536500D01*
X179724500Y-125536500D02*
X182824500Y-125536500D01*
X182824500Y-125536500D02*
X182824500Y-126336500D01*
X188624500Y-126336500D02*
X188624500Y-125536500D01*
X188624500Y-125536500D02*
X191724500Y-125536500D01*
X191724500Y-125536500D02*
X191724500Y-126336500D01*
X191724500Y-126336500D02*
X192724500Y-126336500D01*
X188624500Y-126336500D02*
X188024500Y-126336500D01*
X188024500Y-126336500D02*
X188024500Y-125086500D01*
X188024500Y-125086500D02*
X191254500Y-125086500D01*
X53723500Y-105136902D02*
G75*
G03*
X53723500Y-105136902I-1350000J0D01*
G01*
X191254500Y-125086500D02*
X191254500Y-123361500D01*
X115636500Y-152761902D02*
G75*
G03*
X115636500Y-152761902I-1350000J0D01*
G01*
X191254500Y-123361500D02*
X192174500Y-123361500D01*
X192174500Y-123361500D02*
X192174500Y-120061500D01*
X192174500Y-120061500D02*
X191254500Y-120061500D01*
X191254500Y-120061500D02*
X191254500Y-118336500D01*
X191254500Y-118336500D02*
X188024500Y-118336500D01*
X188024500Y-118336500D02*
X188024500Y-117511500D01*
X188024500Y-117511500D02*
X185224500Y-117511500D01*
X185224500Y-117511500D02*
X185224500Y-118336500D01*
X185224500Y-118336500D02*
X178954500Y-118336500D01*
X178954500Y-118336500D02*
X178954500Y-120061500D01*
X178954500Y-120061500D02*
X177974500Y-120061500D01*
X177974500Y-120061500D02*
X177974500Y-123361500D01*
X177974500Y-123361500D02*
X178954500Y-123361500D01*
X178954500Y-123361500D02*
X178954500Y-125086500D01*
X178954500Y-125086500D02*
X183424500Y-125086500D01*
X183424500Y-125086500D02*
X183424500Y-126336500D01*
X183424500Y-126336500D02*
X182824500Y-126336500D01*
X188024500Y-140336500D02*
X188024500Y-141586500D01*
X188024500Y-141586500D02*
X191254500Y-141586500D01*
X191254500Y-141586500D02*
X191254500Y-143311500D01*
X191254500Y-143311500D02*
X192174500Y-143311500D01*
X192174500Y-143311500D02*
X192174500Y-146611500D01*
X192174500Y-146611500D02*
X191254500Y-146611500D01*
X191254500Y-146611500D02*
X191254500Y-148336500D01*
X191254500Y-148336500D02*
X188024500Y-148336500D01*
X188024500Y-148336500D02*
X188024500Y-149161500D01*
X188024500Y-149161500D02*
X185224500Y-149161500D01*
X185224500Y-149161500D02*
X185224500Y-148336500D01*
X185224500Y-148336500D02*
X178954500Y-148336500D01*
X178954500Y-148336500D02*
X178954500Y-146611500D01*
X178954500Y-146611500D02*
X177974500Y-146611500D01*
X177974500Y-146611500D02*
X177974500Y-143311500D01*
X177974500Y-143311500D02*
X178954500Y-143311500D01*
X178954500Y-143311500D02*
X178954500Y-141586500D01*
X178954500Y-141586500D02*
X183424500Y-141586500D01*
X183424500Y-141586500D02*
X183424500Y-140336500D01*
X188624500Y-140336500D02*
X188024500Y-140336500D01*
X183424500Y-140336500D02*
X182824500Y-140336500D01*
X182824500Y-103036500D02*
X179724500Y-103036500D01*
X188024500Y-80236500D02*
X188024500Y-79411500D01*
X188024500Y-102236500D02*
X188024500Y-103486500D01*
X188024500Y-79411500D02*
X185224500Y-79411500D01*
X178954500Y-105211500D02*
X178954500Y-103486500D01*
X178954500Y-103486500D02*
X183424500Y-103486500D01*
X182824500Y-87436500D02*
X182824500Y-88236500D01*
X188024500Y-110236500D02*
X188024500Y-111061500D01*
X191254500Y-105211500D02*
X192174500Y-105211500D01*
X185224500Y-79411500D02*
X185224500Y-80236500D01*
X178954500Y-110236500D02*
X178954500Y-108511500D01*
X177974500Y-108511500D02*
X177974500Y-105211500D01*
X178724500Y-88236500D02*
X179724500Y-88236500D01*
X191254500Y-80236500D02*
X188024500Y-80236500D01*
X179724500Y-87436500D02*
X182824500Y-87436500D01*
X192174500Y-85261500D02*
X192174500Y-81961500D01*
X192174500Y-81961500D02*
X191254500Y-81961500D01*
X177974500Y-81961500D02*
X177974500Y-85261500D01*
X192174500Y-105211500D02*
X192174500Y-108511500D01*
X192724500Y-102236500D02*
X191724500Y-102236500D01*
X185224500Y-80236500D02*
X178954500Y-80236500D01*
X191254500Y-86986500D02*
X191254500Y-85261500D01*
X185224500Y-111061500D02*
X185224500Y-110236500D01*
X182824500Y-102236500D02*
X182824500Y-103036500D01*
X178954500Y-81961500D02*
X177974500Y-81961500D01*
X185224500Y-110236500D02*
X178954500Y-110236500D01*
X191254500Y-110236500D02*
X188024500Y-110236500D01*
X191724500Y-88236500D02*
X192724500Y-88236500D01*
X177974500Y-85261500D02*
X178954500Y-85261500D01*
X177974500Y-105211500D02*
X178954500Y-105211500D01*
X179724500Y-88236500D02*
X179724500Y-87436500D01*
X191254500Y-81961500D02*
X191254500Y-80236500D01*
X191724500Y-102236500D02*
X191724500Y-103036500D01*
X191254500Y-85261500D02*
X192174500Y-85261500D01*
X188024500Y-103486500D02*
X191254500Y-103486500D01*
X191724500Y-103036500D02*
X188624500Y-103036500D01*
X191254500Y-103486500D02*
X191254500Y-105211500D01*
X192724500Y-88236500D02*
X192724500Y-102236500D01*
X188024500Y-111061500D02*
X185224500Y-111061500D01*
X179724500Y-103036500D02*
X179724500Y-102236500D01*
X192174500Y-108511500D02*
X191254500Y-108511500D01*
X178724500Y-102236500D02*
X178724500Y-88236500D01*
X178954500Y-86986500D02*
X183424500Y-86986500D01*
X183424500Y-103486500D02*
X183424500Y-102236500D01*
X183424500Y-86986500D02*
X183424500Y-88236500D01*
X178954500Y-80236500D02*
X178954500Y-81961500D01*
X188024500Y-86986500D02*
X191254500Y-86986500D01*
X188624500Y-103036500D02*
X188624500Y-102236500D01*
X178954500Y-108511500D02*
X177974500Y-108511500D01*
X178954500Y-85261500D02*
X178954500Y-86986500D01*
X191724500Y-87436500D02*
X191724500Y-88236500D01*
X191254500Y-108511500D02*
X191254500Y-110236500D01*
X188624500Y-87436500D02*
X191724500Y-87436500D01*
X179724500Y-102236500D02*
X178724500Y-102236500D01*
X188624500Y-88236500D02*
X188624500Y-87436500D01*
X188024500Y-88236500D02*
X188024500Y-86986500D01*
X183424500Y-88236500D02*
X182824500Y-88236500D01*
X188624500Y-102236500D02*
X188024500Y-102236500D01*
X183424500Y-102236500D02*
X182824500Y-102236500D01*
X188624500Y-88236500D02*
X188024500Y-88236500D01*
X196599500Y-28934902D02*
G75*
G03*
X196599500Y-28934902I-1350000J0D01*
G01*
X115636500Y-105136902D02*
G75*
G03*
X115636500Y-105136902I-1350000J0D01*
G01*
X195249500Y-157149486D02*
G75*
G03*
X200012500Y-152386500I23J4762977D01*
G01*
X47612532Y-152386500D02*
G75*
G03*
X52375500Y-157149500I4762991J-9D01*
G01*
X195249500Y-23799500D02*
X52375500Y-23799500D01*
X47612500Y-28562500D02*
X47612500Y-133337500D01*
X200012532Y-28562500D02*
G75*
G03*
X195249500Y-23799500I-4763009J-9D01*
G01*
M02*
